name rise49.5252peak65.1548fall88.8305.mot
datacolumns 19
datarows 27
range 1.36333700000000 1.40665800000000
endheader
time	ground_force1_vx	ground_force1_vy	ground_force1_vz	ground_force1_px	ground_force1_py	ground_force1_pz	ground_force2_vx	ground_force2_vy	ground_force2_vz	ground_force2_px	ground_force2_py	ground_force2_pz	ground_torque1_x	ground_torque1_y	ground_torque1_z	ground_torque2_x	ground_torque2_y	ground_torque2_z	
1.36333700000000	-8.68649600000000	692.79200100000003	47.62006100000000	0.22415800000000	0.00000000000000	0.14913700000000	0.00000000000000	0.00000000000000	0.00000000000000	0.00000000000000	0.00000000000000	0.00000000000000	0.00000000000000	23.59013300000000	0.00000000000000	0.00000000000000	0.00000000000000	0.00000000000000	
1.36499000000000	-9.02360300000000	693.24000200000000	47.60470800000000	0.22355000000000	0.00000000000000	0.14910000000000	0.00000000000000	0.00000000000000	0.00000000000000	0.00000000000000	0.00000000000000	0.00000000000000	0.00000000000000	23.64959300000000	0.00000000000000	0.00000000000000	0.00000000000000	0.00000000000000	
1.36665800000000	-9.36873100000000	693.74059099999999	47.58999200000000	0.22294100000000	0.00000000000000	0.14906100000000	0.00000000000000	0.00000000000000	0.00000000000000	0.00000000000000	0.00000000000000	0.00000000000000	0.00000000000000	23.71264500000000	0.00000000000000	0.00000000000000	0.00000000000000	0.00000000000000	
1.36832300000000	-9.72216700000000	694.29367800000000	47.57563900000000	0.22232900000000	0.00000000000000	0.14902000000000	0.00000000000000	0.00000000000000	0.00000000000000	0.00000000000000	0.00000000000000	0.00000000000000	0.00000000000000	23.77910500000000	0.00000000000000	0.00000000000000	0.00000000000000	0.00000000000000	
1.36999000000000	-10.08415900000000	694.89917100000002	47.56139200000000	0.22171200000000	0.00000000000000	0.14897600000000	0.00000000000000	0.00000000000000	0.00000000000000	0.00000000000000	0.00000000000000	0.00000000000000	0.00000000000000	23.84878600000000	0.00000000000000	0.00000000000000	0.00000000000000	0.00000000000000	
1.37165300000000	-10.45491800000000	695.55697299999997	47.54701700000000	0.22108800000000	0.00000000000000	0.14893100000000	0.00000000000000	0.00000000000000	0.00000000000000	0.00000000000000	0.00000000000000	0.00000000000000	0.00000000000000	23.92150400000000	0.00000000000000	0.00000000000000	0.00000000000000	0.00000000000000	
1.37332000000000	-10.83460900000000	696.26698199999998	47.53229700000000	0.22045700000000	0.00000000000000	0.14888300000000	0.00000000000000	0.00000000000000	0.00000000000000	0.00000000000000	0.00000000000000	0.00000000000000	0.00000000000000	23.99707900000000	0.00000000000000	0.00000000000000	0.00000000000000	0.00000000000000	
1.37498800000000	-11.22335700000000	697.02908600000001	47.51703500000000	0.21981500000000	0.00000000000000	0.14883400000000	0.00000000000000	0.00000000000000	0.00000000000000	0.00000000000000	0.00000000000000	0.00000000000000	0.00000000000000	24.07532900000000	0.00000000000000	0.00000000000000	0.00000000000000	0.00000000000000	
1.37665300000000	-11.62124400000000	697.84315900000001	47.50105800000000	0.21916100000000	0.00000000000000	0.14878200000000	0.00000000000000	0.00000000000000	0.00000000000000	0.00000000000000	0.00000000000000	0.00000000000000	0.00000000000000	24.15607800000000	0.00000000000000	0.00000000000000	0.00000000000000	0.00000000000000	
1.37832100000000	-12.02830500000000	698.70905700000003	47.48421300000000	0.21849400000000	0.00000000000000	0.14872900000000	0.00000000000000	0.00000000000000	0.00000000000000	0.00000000000000	0.00000000000000	0.00000000000000	0.00000000000000	24.23915100000000	0.00000000000000	0.00000000000000	0.00000000000000	0.00000000000000	
1.37998900000000	-12.44453200000000	699.62661600000001	47.46636900000000	0.21781300000000	0.00000000000000	0.14867400000000	0.00000000000000	0.00000000000000	0.00000000000000	0.00000000000000	0.00000000000000	0.00000000000000	0.00000000000000	24.32437700000000	0.00000000000000	0.00000000000000	0.00000000000000	0.00000000000000	
1.38165500000000	-12.86987100000000	700.59564699999999	47.44741600000000	0.21711700000000	0.00000000000000	0.14861700000000	0.00000000000000	0.00000000000000	0.00000000000000	0.00000000000000	0.00000000000000	0.00000000000000	0.00000000000000	24.41158800000000	0.00000000000000	0.00000000000000	0.00000000000000	0.00000000000000	
1.38332200000000	-13.30422200000000	701.61593000000005	47.42726600000000	0.21640400000000	0.00000000000000	0.14855900000000	0.00000000000000	0.00000000000000	0.00000000000000	0.00000000000000	0.00000000000000	0.00000000000000	0.00000000000000	24.50062100000000	0.00000000000000	0.00000000000000	0.00000000000000	0.00000000000000	
1.38498800000000	-13.74744000000000	702.68721400000004	47.40585500000000	0.21567400000000	0.00000000000000	0.14849900000000	0.00000000000000	0.00000000000000	0.00000000000000	0.00000000000000	0.00000000000000	0.00000000000000	0.00000000000000	24.59131500000000	0.00000000000000	0.00000000000000	0.00000000000000	0.00000000000000	
1.38666000000000	-14.19933400000000	703.80921000000001	47.38313900000000	0.21492600000000	0.00000000000000	0.14843700000000	0.00000000000000	0.00000000000000	0.00000000000000	0.00000000000000	0.00000000000000	0.00000000000000	0.00000000000000	24.68351600000000	0.00000000000000	0.00000000000000	0.00000000000000	0.00000000000000	
1.38832300000000	-14.65966900000000	704.98158899999999	47.35909700000000	0.21416000000000	0.00000000000000	0.14837400000000	0.00000000000000	0.00000000000000	0.00000000000000	0.00000000000000	0.00000000000000	0.00000000000000	0.00000000000000	24.77707100000000	0.00000000000000	0.00000000000000	0.00000000000000	0.00000000000000	
1.38999100000000	-15.12816800000000	706.20397400000002	47.33372700000000	0.21337500000000	0.00000000000000	0.14830900000000	0.00000000000000	0.00000000000000	0.00000000000000	0.00000000000000	0.00000000000000	0.00000000000000	0.00000000000000	24.87183300000000	0.00000000000000	0.00000000000000	0.00000000000000	0.00000000000000	
1.39166000000000	-15.60450700000000	707.47594100000003	47.30705100000000	0.21257200000000	0.00000000000000	0.14824300000000	0.00000000000000	0.00000000000000	0.00000000000000	0.00000000000000	0.00000000000000	0.00000000000000	0.00000000000000	24.96766000000000	0.00000000000000	0.00000000000000	0.00000000000000	0.00000000000000	
1.39332000000000	-16.08832400000000	708.79701399999999	47.27911000000000	0.21175100000000	0.00000000000000	0.14817600000000	0.00000000000000	0.00000000000000	0.00000000000000	0.00000000000000	0.00000000000000	0.00000000000000	0.00000000000000	25.06441400000000	0.00000000000000	0.00000000000000	0.00000000000000	0.00000000000000	
1.39498800000000	-16.57921600000000	710.16665799999998	47.24996700000000	0.21091100000000	0.00000000000000	0.14810800000000	0.00000000000000	0.00000000000000	0.00000000000000	0.00000000000000	0.00000000000000	0.00000000000000	0.00000000000000	25.16195900000000	0.00000000000000	0.00000000000000	0.00000000000000	0.00000000000000	
1.39665200000000	-17.07674000000000	711.58428000000004	47.21970400000000	0.21005300000000	0.00000000000000	0.14803800000000	0.00000000000000	0.00000000000000	0.00000000000000	0.00000000000000	0.00000000000000	0.00000000000000	0.00000000000000	25.26016500000000	0.00000000000000	0.00000000000000	0.00000000000000	0.00000000000000	
1.39832800000000	-17.58041700000000	713.04922299999998	47.18842000000000	0.20917800000000	0.00000000000000	0.14796700000000	0.00000000000000	0.00000000000000	0.00000000000000	0.00000000000000	0.00000000000000	0.00000000000000	0.00000000000000	25.35890700000000	0.00000000000000	0.00000000000000	0.00000000000000	0.00000000000000	
1.39999400000000	-18.08973500000000	714.56076499999995	47.15623700000000	0.20828700000000	0.00000000000000	0.14789500000000	0.00000000000000	0.00000000000000	0.00000000000000	0.00000000000000	0.00000000000000	0.00000000000000	0.00000000000000	25.45806100000000	0.00000000000000	0.00000000000000	0.00000000000000	0.00000000000000	
1.40165800000000	-18.60414900000000	716.11811399999999	47.12329200000000	0.20737900000000	0.00000000000000	0.14782100000000	0.00000000000000	0.00000000000000	0.00000000000000	0.00000000000000	0.00000000000000	0.00000000000000	0.00000000000000	25.55750900000000	0.00000000000000	0.00000000000000	0.00000000000000	0.00000000000000	
1.40332300000000	-19.12308200000000	717.72040600000003	47.08974000000000	0.20645800000000	0.00000000000000	0.14774700000000	0.00000000000000	0.00000000000000	0.00000000000000	0.00000000000000	0.00000000000000	0.00000000000000	0.00000000000000	25.65713500000000	0.00000000000000	0.00000000000000	0.00000000000000	0.00000000000000	
1.40498800000000	-19.64593300000000	719.36670400000003	47.05575100000000	0.20552200000000	0.00000000000000	0.14767100000000	0.00000000000000	0.00000000000000	0.00000000000000	0.00000000000000	0.00000000000000	0.00000000000000	0.00000000000000	25.75682800000000	0.00000000000000	0.00000000000000	0.00000000000000	0.00000000000000	
1.40665800000000	-20.17207300000000	721.05599600000005	47.02151400000000	0.20457500000000	0.00000000000000	0.14759400000000	0.00000000000000	0.00000000000000	0.00000000000000	0.00000000000000	0.00000000000000	0.00000000000000	0.00000000000000	25.85647900000000	0.00000000000000	0.00000000000000	0.00000000000000	0.00000000000000	
